<?xml version="1.0" standalone="no"?>
<!DOCTYPE svg PUBLIC "-//W3C//DTD SVG 20010904//EN"
 "http://www.w3.org/TR/2001/REC-SVG-20010904/DTD/svg10.dtd">
<svg version="1.0" xmlns="http://www.w3.org/2000/svg"
 width="512.000000pt" height="512.000000pt" viewBox="0 0 512.000000 512.000000"
 preserveAspectRatio="xMidYMid meet">

<g transform="translate(0.000000,512.000000) scale(0.100000,-0.100000)"
fill="#000000" stroke="none">
<path d="M1535 4794 c-272 -35 -496 -116 -706 -255 -126 -84 -324 -282 -408
-408 -165 -249 -253 -524 -255 -801 -1 -111 2 -131 23 -177 29 -66 111 -143
176 -169 49 -19 101 -19 2195 -19 2094 0 2146 0 2195 19 65 26 147 103 176
169 22 47 24 65 23 187 -5 475 -272 949 -687 1218 -146 94 -332 170 -526 214
-95 22 -106 22 -1136 24 -572 1 -1053 0 -1070 -2z m-200 -339 c50 -49 15 -135
-55 -135 -41 0 -80 39 -80 80 0 41 39 80 80 80 19 0 40 -9 55 -25z m640 0 c50
-49 15 -135 -55 -135 -41 0 -80 39 -80 80 0 41 39 80 80 80 19 0 40 -9 55 -25z
m640 0 c16 -15 25 -36 25 -55 0 -19 -9 -40 -25 -55 -49 -50 -135 -15 -135 55
0 41 39 80 80 80 19 0 40 -9 55 -25z m640 0 c16 -15 25 -36 25 -55 0 -19 -9
-40 -25 -55 -15 -16 -36 -25 -55 -25 -19 0 -40 9 -55 25 -16 15 -25 36 -25 55
0 19 9 40 25 55 15 16 36 25 55 25 19 0 40 -9 55 -25z m640 0 c16 -15 25 -36
25 -55 0 -19 -9 -40 -25 -55 -15 -16 -36 -25 -55 -25 -19 0 -40 9 -55 25 -16
15 -25 36 -25 55 0 19 9 40 25 55 15 16 36 25 55 25 19 0 40 -9 55 -25z
m-2880 -560 c50 -49 15 -135 -55 -135 -41 0 -80 39 -80 80 0 41 39 80 80 80
19 0 40 -9 55 -25z m640 0 c50 -49 15 -135 -55 -135 -41 0 -80 39 -80 80 0 41
39 80 80 80 19 0 40 -9 55 -25z m640 0 c50 -49 15 -135 -55 -135 -41 0 -80 39
-80 80 0 41 39 80 80 80 19 0 40 -9 55 -25z m640 0 c16 -15 25 -36 25 -55 0
-19 -9 -40 -25 -55 -15 -16 -36 -25 -55 -25 -19 0 -40 9 -55 25 -16 15 -25 36
-25 55 0 19 9 40 25 55 15 16 36 25 55 25 19 0 40 -9 55 -25z m640 0 c16 -15
25 -36 25 -55 0 -19 -9 -40 -25 -55 -15 -16 -36 -25 -55 -25 -19 0 -40 9 -55
25 -16 15 -25 36 -25 55 0 19 9 40 25 55 15 16 36 25 55 25 19 0 40 -9 55 -25z
m640 0 c16 -15 25 -36 25 -55 0 -19 -9 -40 -25 -55 -15 -16 -36 -25 -55 -25
-19 0 -40 9 -55 25 -16 15 -25 36 -25 55 0 19 9 40 25 55 15 16 36 25 55 25
19 0 40 -9 55 -25z"/>
<path d="M320 2782 c-41 -22 -80 -90 -80 -141 0 -55 36 -119 81 -141 36 -19
61 -20 539 -20 l500 0 879 -200 878 -199 199 199 198 200 626 0 c586 0 628 1
660 18 42 22 80 90 80 142 0 52 -38 120 -80 142 -33 17 -125 18 -2240 18
-2115 0 -2207 -1 -2240 -18z"/>
<path d="M240 2307 c-49 -16 -133 -102 -148 -153 -28 -94 -8 -169 63 -240 35
-35 64 -54 95 -62 68 -19 4587 -12 4647 7 48 15 112 89 133 155 16 49 8 122
-19 174 -26 50 -89 105 -140 120 -27 9 -218 12 -662 12 l-624 0 -205 -205
c-113 -113 -211 -205 -218 -205 -8 0 -210 45 -450 99 -241 55 -647 147 -904
205 l-467 106 -533 -1 c-358 -1 -544 -5 -568 -12z"/>
<path d="M151 1662 c-103 -52 -82 -203 32 -233 23 -6 86 -36 141 -67 54 -30
122 -62 149 -69 118 -30 226 -9 359 72 105 63 170 80 277 72 59 -5 89 -13 143
-41 37 -20 99 -52 137 -72 56 -29 82 -37 148 -41 101 -7 170 12 279 78 103 62
184 83 283 76 77 -6 85 -9 276 -111 57 -30 84 -38 145 -43 108 -8 172 9 281
73 191 113 319 113 509 0 109 -64 172 -81 280 -73 61 5 88 13 145 43 195 104
199 105 282 111 101 7 170 -12 279 -78 124 -75 236 -96 351 -66 27 7 95 39
149 69 55 31 117 61 140 67 91 24 128 120 76 200 -36 54 106 51 -2454 51
-2239 0 -2375 -1 -2407 -18z"/>
<path d="M1008 1271 c-15 -5 -60 -29 -100 -54 -98 -61 -183 -88 -293 -94 -108
-6 -188 11 -287 61 l-68 34 0 -33 c0 -19 7 -64 15 -102 40 -188 124 -343 259
-479 119 -119 271 -207 441 -255 l80 -23 1469 -3 c1274 -3 1481 -2 1557 12
352 60 648 317 753 653 25 81 52 219 44 228 -3 2 -33 -12 -69 -31 -89 -48
-190 -69 -298 -62 -105 6 -188 33 -283 92 -125 78 -218 83 -324 19 -141 -86
-226 -114 -345 -114 -124 0 -166 14 -379 126 -44 23 -68 29 -120 29 -68 0 -76
-3 -231 -88 -111 -61 -255 -82 -381 -56 -56 12 -158 57 -248 111 -48 29 -63
33 -125 33 -74 -1 -87 -5 -230 -85 -175 -98 -395 -91 -572 17 -32 20 -71 43
-88 52 -34 17 -137 24 -177 12z"/>
</g>
</svg>
