<?xml version="1.0" standalone="no"?>
<!DOCTYPE svg PUBLIC "-//W3C//DTD SVG 20010904//EN"
 "http://www.w3.org/TR/2001/REC-SVG-20010904/DTD/svg10.dtd">
<svg version="1.0" xmlns="http://www.w3.org/2000/svg"
 width="512.000000pt" height="512.000000pt" viewBox="0 0 512.000000 512.000000"
 preserveAspectRatio="xMidYMid meet">

<g transform="translate(0.000000,512.000000) scale(0.100000,-0.100000)"
fill="#000000" stroke="none">
<path d="M1305 5106 c-235 -55 -430 -215 -549 -453 -266 -531 -50 -1215 443
-1405 49 -18 61 -27 61 -45 0 -12 -68 -627 -151 -1365 -143 -1269 -151 -1347
-140 -1422 15 -111 56 -193 135 -272 146 -145 355 -182 544 -94 85 40 182 137
222 222 63 135 67 69 -74 1553 -69 732 -128 1349 -131 1372 l-6 42 73 34 c459
214 646 872 392 1380 -76 151 -204 292 -335 370 -138 81 -341 116 -484 83z"/>
<path d="M2975 5106 c-37 -17 -70 -52 -84 -89 -17 -45 -14 -1061 3 -1157 28
-155 95 -286 204 -402 102 -107 213 -179 342 -219 31 -9 56 -23 58 -32 2 -8
-65 -622 -149 -1364 -143 -1275 -151 -1352 -140 -1427 15 -111 56 -193 135
-272 146 -145 355 -182 544 -94 85 40 182 137 222 222 63 135 67 69 -74 1553
-69 732 -128 1348 -131 1371 l-6 41 43 12 c147 45 321 182 415 328 18 29 48
88 65 130 56 140 59 184 56 776 -3 523 -3 536 -24 563 -39 53 -71 69 -134 69
-63 0 -95 -16 -134 -69 -20 -27 -21 -43 -26 -486 -5 -443 -6 -459 -26 -486
-39 -53 -71 -69 -134 -69 -63 0 -95 16 -134 69 -20 27 -21 43 -26 486 -5 443
-6 459 -26 486 -39 53 -71 69 -134 69 -63 0 -95 -16 -134 -69 -20 -27 -21 -43
-26 -486 -5 -443 -6 -459 -26 -486 -39 -53 -71 -69 -134 -69 -63 0 -95 16
-134 69 -20 27 -21 43 -26 486 -5 443 -6 459 -26 486 -11 15 -32 37 -46 47
-34 25 -113 32 -153 13z"/>
</g>
</svg>
