<?xml version="1.0" standalone="no"?>
<!DOCTYPE svg PUBLIC "-//W3C//DTD SVG 20010904//EN"
 "http://www.w3.org/TR/2001/REC-SVG-20010904/DTD/svg10.dtd">
<svg version="1.0" xmlns="http://www.w3.org/2000/svg"
 width="512.000000pt" height="512.000000pt" viewBox="0 0 512.000000 512.000000"
 preserveAspectRatio="xMidYMid meet">

<g transform="translate(0.000000,512.000000) scale(0.100000,-0.100000)"
fill="#000000" stroke="none">
<path d="M3050 5038 c-289 -44 -540 -87 -558 -95 -18 -9 -42 -30 -55 -47 -22
-31 -22 -33 -25 -508 l-3 -478 -544 0 c-368 0 -561 -4 -597 -11 -172 -37 -311
-176 -347 -347 -6 -29 -11 -136 -11 -238 0 -215 9 -248 80 -284 39 -20 56 -20
1570 -20 1514 0 1531 0 1570 20 71 36 80 69 80 284 0 102 -5 209 -11 238 -37
172 -176 311 -347 347 -35 7 -236 11 -597 11 l-545 0 0 385 0 385 23 4 c12 3
220 35 462 71 325 48 451 70 481 86 47 23 84 80 84 129 0 76 -77 151 -152 149
-18 0 -269 -37 -558 -81z"/>
<path d="M1255 2683 c3 -16 18 -170 35 -343 17 -173 33 -330 36 -347 l5 -33
1229 0 c677 0 1230 1 1230 3 0 1 16 157 35 347 19 190 35 357 35 373 l0 27
-1305 0 -1304 0 4 -27z"/>
<path d="M1360 1648 c0 -21 50 -522 56 -555 l5 -33 1139 0 1139 0 6 43 c5 41
55 535 55 550 0 4 -540 7 -1200 7 -919 0 -1200 -3 -1200 -12z"/>
<path d="M1450 743 c0 -9 14 -154 31 -322 33 -327 40 -356 93 -394 l31 -22
943 -3 c930 -2 943 -2 982 18 67 34 74 60 104 370 15 151 29 296 33 323 l6 47
-1112 0 c-1028 0 -1111 -1 -1111 -17z"/>
</g>
</svg>
