<?xml version="1.0" standalone="no"?>
<!DOCTYPE svg PUBLIC "-//W3C//DTD SVG 20010904//EN"
 "http://www.w3.org/TR/2001/REC-SVG-20010904/DTD/svg10.dtd">
<svg version="1.0" xmlns="http://www.w3.org/2000/svg"
 width="512.000000pt" height="512.000000pt" viewBox="0 0 512.000000 512.000000"
 preserveAspectRatio="xMidYMid meet">

<g transform="translate(0.000000,512.000000) scale(0.100000,-0.100000)"
fill="#000000" stroke="none">
<path d="M573 4711 c-240 -62 -413 -398 -413 -801 0 -166 45 -372 111 -501 15
-31 51 -86 79 -123 36 -47 49 -72 46 -88 -3 -13 -8 -143 -11 -290 l-7 -268 80
0 79 0 6 167 c4 91 7 201 7 243 l0 77 90 -1 90 -1 0 -55 c0 -30 16 -575 36
-1210 26 -854 32 -1165 24 -1192 -20 -71 -104 -119 -183 -104 -47 9 -104 60
-117 104 -8 27 -5 248 14 859 14 452 26 852 26 888 l0 65 -80 0 -80 0 0 -60
c0 -34 -12 -429 -26 -878 -14 -449 -22 -839 -19 -866 7 -54 40 -127 79 -173
14 -16 53 -45 88 -64 58 -31 70 -34 148 -33 72 0 93 4 136 26 28 15 64 38 81
52 33 28 82 112 94 165 10 39 3 371 -37 1713 l-25 838 55 67 c93 112 158 266
187 443 15 89 12 306 -6 415 -42 266 -170 483 -328 560 -62 30 -163 42 -224
26z m154 -172 c93 -45 182 -183 224 -349 33 -132 37 -353 9 -490 -37 -180
-102 -303 -198 -377 -23 -18 -58 -35 -78 -39 -131 -24 -268 125 -331 364 -23
87 -26 115 -26 272 0 157 3 185 26 272 58 217 179 368 296 368 19 0 54 -9 78
-21z"/>
<path d="M4000 4022 l0 -698 26 -52 c31 -63 92 -117 157 -140 l48 -17 -6 -105
c-3 -58 -14 -420 -25 -805 -45 -1638 -45 -1545 -6 -1626 28 -60 72 -104 138
-140 58 -31 70 -34 148 -34 78 0 90 3 148 34 70 38 100 69 140 145 l27 51 -2
260 c-2 143 -5 288 -9 323 l-6 62 -80 0 -80 0 6 -88 c3 -48 8 -180 12 -294 6
-234 2 -256 -64 -306 -51 -39 -133 -39 -184 0 -76 58 -73 -41 -33 1255 19 637
35 1184 35 1216 l0 57 90 0 90 0 0 -47 c-1 -90 40 -1448 46 -1540 l6 -93 79 0
80 0 -6 138 c-8 173 -45 1417 -45 1494 0 49 3 58 18 58 24 0 91 37 125 69 16
14 41 49 55 76 l27 50 3 698 3 697 -81 0 -80 0 0 -400 0 -400 -120 0 -120 0 0
400 0 400 -80 0 -80 0 0 -400 0 -400 -120 0 -120 0 0 400 0 400 -80 0 -80 0 0
-698z m798 -467 l-3 -205 -33 -32 -32 -33 -250 0 -250 0 -32 33 -33 32 -3 205
-3 205 321 0 321 0 -3 -205z"/>
<path d="M2400 4554 c-14 -2 -65 -9 -115 -15 -370 -46 -763 -226 -1049 -480
-6 -6 0 -20 15 -36 14 -16 36 -43 48 -60 12 -18 27 -33 32 -33 5 0 37 23 70
50 243 202 566 345 894 395 129 20 399 20 527 0 329 -50 656 -194 896 -394 36
-30 69 -50 77 -47 8 3 25 22 38 43 13 21 32 44 41 52 9 7 16 17 16 21 0 4 -33
33 -72 65 -363 290 -819 449 -1275 444 -65 -1 -129 -3 -143 -5z"/>
<path d="M2365 4074 c-352 -53 -634 -193 -880 -439 -218 -217 -350 -456 -417
-756 -20 -91 -23 -130 -23 -319 0 -239 9 -301 72 -489 148 -445 509 -806 954
-954 188 -63 250 -72 489 -72 189 0 228 3 320 23 590 132 1034 574 1171 1167
23 102 37 415 22 520 -10 68 -6 66 -115 43 l-58 -12 8 -41 c4 -22 7 -112 6
-200 -1 -153 -9 -213 -43 -343 l-12 -43 -43 36 c-54 44 -161 94 -293 135
l-101 32 64 77 c71 84 143 220 171 321 24 91 24 310 -1 400 -61 225 -222 420
-430 520 -126 60 -190 74 -346 74 -144 0 -211 -12 -315 -59 -43 -19 -56 -21
-65 -11 -21 27 -134 69 -196 74 -134 10 -283 -73 -342 -191 l-22 -44 -73 -5
c-233 -15 -398 -237 -333 -450 l13 -45 -47 -26 c-92 -52 -133 -119 -156 -252
-3 -22 -22 -74 -42 -115 -31 -65 -36 -85 -36 -150 0 -65 5 -85 36 -150 20 -41
39 -93 42 -115 24 -141 64 -201 175 -262 36 -20 92 -61 124 -90 99 -91 148
-106 283 -91 46 6 100 7 119 4 l35 -7 -15 -29 c-23 -44 -29 -112 -15 -155 17
-53 83 -121 135 -141 71 -27 172 -16 274 29 265 119 547 124 809 15 39 -16 72
-33 72 -37 0 -10 -145 -96 -220 -130 -183 -82 -347 -116 -560 -115 -236 0
-414 41 -614 143 -374 191 -635 537 -722 956 -26 126 -26 384 0 510 114 552
529 967 1081 1081 122 25 383 26 507 1 475 -95 870 -431 1024 -872 15 -44 28
-81 29 -83 2 -2 129 25 152 33 30 10 -90 282 -194 440 -84 127 -272 316 -398
402 -165 111 -360 195 -555 238 -73 17 -431 30 -505 19z m19 -508 c124 -72
121 -264 -6 -336 -126 -71 -277 9 -294 156 -5 41 -1 58 23 104 23 44 39 60 83
83 46 24 63 28 104 23 26 -3 67 -16 90 -30z m630 19 c112 -24 227 -87 310
-170 122 -121 184 -256 193 -419 12 -219 -95 -442 -269 -558 l-53 -36 -155 -6
c-85 -3 -189 -13 -230 -21 -105 -21 -101 -22 -83 31 21 63 13 124 -30 220 -20
45 -37 84 -37 88 0 3 30 -11 68 -32 63 -35 72 -37 152 -37 72 1 93 5 136 27
75 39 107 70 145 140 31 57 34 71 34 148 0 79 -3 90 -36 150 -63 115 -177 178
-303 168 -148 -12 -273 -128 -292 -272 l-6 -43 -75 43 c-41 23 -77 45 -80 48
-3 2 17 16 44 29 143 74 225 262 179 410 l-15 49 37 15 c100 42 248 53 366 28z
m-64 -487 c48 -25 90 -89 90 -138 0 -49 -42 -113 -90 -137 -24 -13 -56 -23
-70 -23 -49 0 -113 42 -137 90 -13 24 -23 56 -23 70 0 14 10 46 23 70 24 48
88 90 137 90 14 0 46 -10 70 -22z m-557 -233 c75 -41 79 -46 102 -155 8 -42
29 -104 45 -139 37 -78 37 -102 1 -182 -16 -35 -31 -71 -34 -80 -3 -9 -39 -33
-81 -54 -112 -55 -185 -148 -186 -236 0 -25 -8 -43 -25 -59 -25 -23 -30 -24
-213 -24 l-187 -1 -64 57 c-35 32 -100 78 -143 103 -60 35 -79 51 -84 73 -25
116 -46 187 -68 230 -33 66 -33 95 4 174 16 35 39 104 49 152 21 96 25 102 87
136 l41 22 41 -27 c88 -58 233 -73 336 -34 60 22 143 90 176 144 l22 35 56
-49 c31 -26 88 -65 125 -86z m726 -1001 c176 -31 379 -114 418 -173 28 -42 28
-42 -2 -75 -34 -37 -77 -34 -189 14 -188 80 -386 112 -573 92 -136 -14 -239
-41 -359 -92 -98 -42 -136 -48 -178 -28 -69 31 -22 116 91 165 27 11 69 17
143 17 84 1 112 5 140 20 19 11 76 34 125 53 87 32 94 33 195 27 58 -3 143
-12 189 -20z"/>
<path d="M2082 2653 c-21 -32 -42 -63 -46 -70 -4 -8 35 -40 113 -93 66 -44
124 -80 128 -80 7 0 82 108 91 131 3 7 -230 169 -242 169 -3 0 -23 -26 -44
-57z"/>
<path d="M1675 2658 c-16 -43 -75 -223 -75 -229 0 -11 153 -60 161 -51 15 16
81 234 73 242 -9 8 -132 50 -146 50 -5 0 -11 -6 -13 -12z"/>
<path d="M2011 2279 c-63 -21 -115 -40 -117 -42 -4 -4 43 -147 50 -155 5 -5
227 67 238 77 9 8 -40 161 -50 160 -4 0 -58 -18 -121 -40z"/>
<path d="M1117 1292 l-58 -59 108 -104 c117 -113 218 -192 341 -268 790 -490
1824 -367 2475 296 l77 79 -60 59 -60 59 -50 -56 c-69 -77 -216 -199 -325
-270 -312 -202 -639 -299 -1010 -299 -491 1 -947 191 -1293 538 -46 46 -84 83
-85 83 -2 0 -29 -26 -60 -58z"/>
</g>
</svg>
